HIERARCHY
ROOT hip
{
	OFFSET 0.000000 0.000000 0.000000 
	CHANNELS 6 Xposition Yposition Zposition Xrotation Zrotation Yrotation
	JOINT abdomen
	{
		OFFSET 0.000000 3.402643 0.000000 
		CHANNELS 3 Xrotation Zrotation Yrotation
		JOINT chest
		{
			OFFSET 0.000000 8.438565 -0.680529 
			CHANNELS 3 Xrotation Zrotation Yrotation
			JOINT neck
			{
				OFFSET 0.000000 10.207942 -0.272212 
				CHANNELS 3 Xrotation Zrotation Yrotation
				JOINT head
				{
					OFFSET 0.000000 3.130431 0.000000 
					CHANNELS 3 Xrotation Zrotation Yrotation
					End Site
					{
						OFFSET 0.000000 3.130435 0.000000 
					}
				}
			}
			JOINT lCollar
			{
				OFFSET 3.470700 6.669187 -0.816635 
				CHANNELS 3 Yrotation Zrotation Xrotation
				JOINT lShldr
				{
					OFFSET 3.198488 0.000000 0.000000 
					CHANNELS 3 Zrotation Yrotation Xrotation
					JOINT lForeArm
					{
						OFFSET 10.139888 0.000000 0.000000 
						CHANNELS 3 Yrotation Zrotation Xrotation
						JOINT lHand
						{
							OFFSET 8.370511 0.000000 0.000000 
							CHANNELS 3 Zrotation Yrotation Xrotation
							End Site
							{
								OFFSET 4.083176 0.000000 0.000000 
							}
						}
					}
				}
			}
			JOINT rCollar
			{
				OFFSET -3.470700 6.669187 -0.816635 
				CHANNELS 3 Yrotation Zrotation Xrotation
				JOINT rShldr
				{
					OFFSET -3.198488 0.000000 0.000000 
					CHANNELS 3 Zrotation Yrotation Xrotation
					JOINT rForeArm
					{
						OFFSET -10.139888 0.000000 0.000000 
						CHANNELS 3 Yrotation Zrotation Xrotation
						JOINT rHand
						{
							OFFSET -8.370511 0.000000 0.000000 
							CHANNELS 3 Zrotation Yrotation Xrotation
							End Site
							{
								OFFSET -4.083176 0.000000 0.000000 
							}
						}
					}
				}
			}
		}
	}
	JOINT lThigh
	{
		OFFSET 5.308129 -1.633274 1.361059 
		CHANNELS 3 Xrotation Zrotation Yrotation
		JOINT lShin
		{
			OFFSET -2.041588 -20.007561 0.000000 
			CHANNELS 3 Xrotation Zrotation Yrotation
			JOINT lFoot
			{
				OFFSET 0.000000 -19.190928 -1.224953 
				CHANNELS 3 Xrotation Yrotation Zrotation
				End Site
				{
					OFFSET 0.000000 -2.449906 4.627600 
				}
			}
		}
	}
	JOINT rThigh
	{
		OFFSET -5.308129 -1.633274 1.361059 
		CHANNELS 3 Xrotation Zrotation Yrotation
		JOINT rShin
		{
			OFFSET 2.041588 -20.007561 0.000000 
			CHANNELS 3 Xrotation Zrotation Yrotation
			JOINT rFoot
			{
				OFFSET 0.000000 -19.190928 -1.224953 
				CHANNELS 3 Xrotation Yrotation Zrotation
				End Site
				{
					OFFSET 0.000000 -2.449906 4.627600 
				}
			}
		}
	}
}
MOTION
Frames: 9
Frame Time: 0.016667
12.476413 49.215225 3.772438 1.569367 2.009478 -40.117474 8.255935 -1.815896 -1.358287 1.224204 2.626609 0.928997 -8.457032 0.000000 0.000000 21.440994 -1.888666 12.379736 -28.625420 20.001455 22.997578 -6.848787 -24.125481 -100.761147 -52.542019 -2.680513 -87.234688 23.217121 -11.392597 10.682140 8.657775 8.471489 22.091450 37.148647 0.689872 -8.150288 99.639809 -27.333582 144.836594 -17.991236 21.125061 13.215827 -10.700137 10.227996 20.790808 39.592979 -3.036345 -9.014870 5.855669 -2.911050 -11.252676 -32.759037 -2.773798 8.991648 80.155830 0.099519 2.946020 -12.499086 -7.425542 0.634579 
12.794760 49.235401 3.883141 1.045084 2.978254 -39.144497 8.255935 -1.815896 -1.358287 1.224204 2.626609 0.928997 -8.457032 0.000000 0.000000 21.440994 -1.888666 12.379736 -32.098473 20.906687 23.092121 -5.993004 -23.780064 -100.952713 -49.212700 -2.715294 -87.285545 23.217121 -11.392597 10.682140 7.264476 7.189273 22.421347 37.410667 0.783041 -8.252025 99.731918 -27.852354 144.873367 -17.991236 21.125061 13.215827 -10.536036 8.513707 20.907211 38.432407 -3.065291 -9.630407 5.958620 -2.718932 -11.195370 -35.203808 -3.740164 8.570724 84.613739 -0.195193 3.744800 -12.622389 -7.627895 0.598436 
13.088621 49.195309 4.017888 0.516693 3.854088 -38.383755 8.255935 -1.815896 -1.358287 1.224204 2.626609 0.928997 -8.457032 0.000000 0.000000 21.440994 -1.888666 12.379736 -34.043900 20.672344 23.365440 -4.197612 -24.374701 -100.763466 -47.802456 -2.733660 -87.299629 23.217121 -11.392597 10.682140 5.960616 6.019650 22.749180 37.757977 0.967374 -8.611812 99.818703 -28.282120 144.927963 -17.991236 21.125061 13.215827 -10.523098 6.917586 20.683079 37.682648 -3.114736 -9.961259 5.964065 -2.688900 -11.277712 -37.087639 -4.784942 8.323613 87.159065 -0.380682 3.741902 -12.598185 -7.463075 0.596788 
13.382343 49.155056 4.152698 -0.008411 4.747307 -37.631165 8.255935 -1.815896 -1.358287 1.224204 2.626609 0.928997 -8.457032 0.000000 0.000000 21.440994 -1.888666 12.379736 -35.972477 20.419685 23.631868 -2.397655 -24.987154 -100.592529 -46.401852 -2.754774 -87.312065 23.217121 -11.392597 10.682140 4.655335 4.849497 23.060156 38.114059 1.163660 -8.977283 99.903473 -28.730671 144.975479 -17.991236 21.125061 13.215827 -10.502746 5.316189 20.459417 36.973183 -3.147506 -10.280599 5.951082 -2.694332 -11.341384 -38.978569 -5.840057 8.136012 89.703598 -0.566483 3.749370 -12.570541 -7.299265 0.584676 
13.628407 49.063160 4.306364 -0.710934 5.616731 -37.436104 8.255935 -1.815896 -1.358287 1.224204 2.626609 0.928997 -8.457032 0.000000 0.000000 21.440994 -1.888666 12.379736 -36.105850 18.732544 23.686132 0.748767 -26.283957 -99.826660 -46.313637 -2.757379 -87.314911 23.217121 -11.392597 10.682140 3.857084 3.694621 23.199589 38.903717 1.531604 -9.354046 99.969810 -29.070385 145.001404 -17.991236 21.125061 13.215827 -10.302118 3.905904 20.383999 36.787933 -3.241019 -10.373994 5.843543 -2.806388 -11.199446 -40.049583 -7.060547 8.651507 90.327621 -0.664044 3.435854 -12.557764 -7.353857 0.656543 
13.874200 48.971085 4.460030 -1.418597 6.490276 -37.260956 8.255935 -1.815896 -1.358287 1.224204 2.626609 0.928997 -8.457032 0.000000 0.000000 21.440994 -1.888666 12.379736 -36.227581 17.052910 23.731359 3.917439 -27.618233 -99.137848 -46.225746 -2.752949 -87.324493 23.217121 -11.392597 10.682140 3.069083 2.526390 23.328157 39.680775 1.914740 -9.730087 100.033890 -29.399109 145.040604 -17.991236 21.125061 13.215827 -10.091620 2.485326 20.292557 36.612907 -3.328887 -10.456378 5.748383 -2.937255 -11.083569 -41.150917 -8.290874 9.205163 90.941582 -0.751693 3.139411 -12.539316 -7.418857 0.721446 
14.031503 48.821922 4.612319 -2.227006 7.283420 -37.650692 8.255935 -1.815896 -1.358287 1.224204 2.626609 0.928997 -8.457032 0.000000 0.000000 21.440994 -1.888666 12.379736 -34.748440 14.715798 23.344063 7.203187 -29.345478 -97.780525 -47.283314 -2.742217 -87.310966 23.217121 -11.392597 10.682140 2.813421 1.220127 23.426882 40.542671 2.645080 -10.119114 100.033890 -29.399109 145.040604 -17.991236 21.125061 13.215827 -9.675528 1.199751 20.545509 36.353260 -3.240424 -10.749814 5.705649 -2.851249 -11.140264 -42.000732 -8.896439 10.085754 90.090317 -0.741997 2.395960 -12.508894 -7.471855 0.686594 
14.188546 48.672630 4.764561 -3.036767 8.068534 -38.048691 8.255935 -1.815896 -1.358287 1.224204 2.626609 0.928997 -8.447267 0.000000 0.000000 21.440994 -1.888666 12.379736 -33.304367 12.374359 23.031286 10.492327 -31.133419 -96.516655 -48.341114 -2.726456 -87.289322 23.217121 -11.392597 10.682140 2.566361 -0.095972 23.534353 41.407982 3.382013 -10.493882 100.033890 -29.399109 145.040604 -17.991236 21.125061 13.215827 -9.252720 -0.080704 20.797871 36.053799 -3.143444 -11.076726 5.694176 -2.715056 -11.230304 -42.856213 -9.521402 10.984014 89.228745 -0.742115 1.661557 -12.476226 -7.555140 0.656582 
14.265099 48.478104 4.903447 -3.835207 8.762205 -38.826092 8.255935 -1.815896 -1.358287 1.224204 2.626609 0.928997 -8.457032 0.000000 0.000000 21.440994 -1.888666 12.379736 -31.069855 10.098514 22.701548 13.142396 -33.140388 -95.167046 -50.358265 -2.706692 -87.264946 23.217121 -11.392597 10.682140 2.745941 -1.394053 23.489042 42.263481 4.196526 -10.790420 99.968872 -29.060768 144.999924 -17.991236 21.125061 13.215827 -8.913060 -1.212230 21.318727 36.075966 -3.137546 -11.009182 5.680917 -2.709940 -11.199069 -43.194546 -10.224517 12.447256 87.330666 -0.654175 1.023143 -12.479314 -7.579999 0.742263 
